<svg xmlns="http://www.w3.org/2000/svg" viewBox="0 0 64 64" fill="none">
  <!-- Gear outer ring -->
  <g fill="#1E40AF">
    <circle cx="32" cy="32" r="24"/>
    <!-- Gear teeth (8 positions) -->
    <rect x="29" y="2" width="6" height="8" rx="1"/>
    <rect x="29" y="54" width="6" height="8" rx="1"/>
    <rect x="2" y="29" width="8" height="6" rx="1"/>
    <rect x="54" y="29" width="8" height="6" rx="1"/>
    <rect x="9" y="9" width="6" height="8" rx="1" transform="rotate(-45 12 13)"/>
    <rect x="49" y="9" width="6" height="8" rx="1" transform="rotate(45 52 13)"/>
    <rect x="9" y="47" width="6" height="8" rx="1" transform="rotate(45 12 51)"/>
    <rect x="49" y="47" width="6" height="8" rx="1" transform="rotate(-45 52 51)"/>
  </g>
  <!-- Inner circle (lighter blue) -->
  <circle cx="32" cy="32" r="18" fill="#0F3570"/>
  <!-- Flame (orange) -->
  <path d="M32 14 C34 20, 40 22, 40 30 C40 36, 36 40, 32 40 C28 40, 24 36, 24 30 C24 24, 28 24, 32 14 Z" fill="#F97316"/>
  <!-- Inner flame (lighter) -->
  <path d="M32 22 C33 25, 36 26, 36 30 C36 34, 34 36, 32 36 C30 36, 28 34, 28 30 C28 27, 30 27, 32 22 Z" fill="#FB923C"/>
</svg>
